<svg width="26" height="26" viewBox="0 0 26 26" fill="none" xmlns="http://www.w3.org/2000/svg">
<path d="M17 4H7C4.24 4 2 6.23 2 8.98V15.96C2 18.71 4.24 20.94 7 20.94H8.5C8.77 20.94 9.13 21.12 9.3 21.34L10.8 23.33C11.46 24.21 12.54 24.21 13.2 23.33L14.7 21.34C14.89 21.09 15.19 20.94 15.5 20.94H17C19.76 20.94 22 18.71 22 15.96V8.98C22 6.23 19.76 4 17 4ZM13 15.75H7C6.59 15.75 6.25 15.41 6.25 15C6.25 14.59 6.59 14.25 7 14.25H13C13.41 14.25 13.75 14.59 13.75 15C13.75 15.41 13.41 15.75 13 15.75ZM17 10.75H7C6.59 10.75 6.25 10.41 6.25 10C6.25 9.59 6.59 9.25 7 9.25H17C17.41 9.25 17.75 9.59 17.75 10C17.75 10.41 17.41 10.75 17 10.75Z" fill="#2F0640"/>
<circle cx="21.5" cy="4.5" r="4.5" fill="#F33030"/>
<path d="M20.426 5.716C20.474 6.388 20.936 7.018 21.89 7.018C23.066 7.018 23.414 6.19 23.414 4.696C23.414 3.364 23.066 2.518 21.818 2.518C20.888 2.518 20.312 3.094 20.312 3.982C20.312 4.912 20.888 5.38 21.638 5.38C22.01 5.38 22.334 5.236 22.508 4.99C22.508 5.824 22.358 6.19 21.926 6.19C21.608 6.19 21.434 6.022 21.374 5.716H20.426ZM21.872 4.57C21.47 4.57 21.278 4.324 21.278 3.994C21.278 3.628 21.494 3.4 21.848 3.4C22.196 3.4 22.424 3.61 22.424 4C22.424 4.354 22.208 4.57 21.872 4.57Z" fill="#2F0640"/>
</svg>
