<svg width="22" height="22" viewBox="0 0 22 22" fill="none" xmlns="http://www.w3.org/2000/svg">
<path d="M20.1667 14.8408C20.1667 18.1774 18.1775 20.1666 14.8409 20.1666H13.75C13.2459 20.1666 12.8334 19.7541 12.8334 19.2499V13.9608C12.8334 13.7133 13.035 13.5024 13.2825 13.5024L14.8959 13.4749C15.0242 13.4658 15.1342 13.3741 15.1617 13.2458L15.4825 11.4949C15.4888 11.4552 15.4863 11.4147 15.4754 11.376C15.4644 11.3374 15.4452 11.3016 15.419 11.2711C15.3929 11.2406 15.3604 11.2161 15.3239 11.1994C15.2874 11.1826 15.2477 11.174 15.2075 11.1741L13.255 11.2016C12.9984 11.2016 12.7967 10.9999 12.7875 10.7524L12.7509 8.50658C12.7509 8.35992 12.87 8.23158 13.0259 8.23158L15.2259 8.19492C15.3817 8.19492 15.5009 8.07575 15.5009 7.91992L15.4642 5.71992C15.4642 5.56409 15.345 5.44492 15.1892 5.44492L12.7142 5.48159C12.3529 5.48707 11.9963 5.5638 11.6647 5.70738C11.3331 5.85096 11.0331 6.05856 10.7819 6.31828C10.5307 6.57801 10.3332 6.88475 10.2007 7.22094C10.0683 7.55712 10.0035 7.91614 10.01 8.27742L10.0559 10.7983C10.065 11.0549 9.86337 11.2566 9.60671 11.2658L8.50671 11.2841C8.35087 11.2841 8.23171 11.4033 8.23171 11.5591L8.25921 13.3008C8.25921 13.4566 8.37837 13.5758 8.53421 13.5758L9.63421 13.5574C9.89087 13.5574 10.0925 13.7591 10.1017 14.0066L10.1842 19.2316C10.1934 19.7449 9.78087 20.1666 9.26754 20.1666H7.15921C3.82254 20.1666 1.83337 18.1774 1.83337 14.8316V7.15908C1.83337 3.82242 3.82254 1.83325 7.15921 1.83325H14.8409C18.1775 1.83325 20.1667 3.82242 20.1667 7.15908V14.8408Z" fill="#2F0640"/>
</svg>
