<svg width="18" height="19" viewBox="0 0 18 19" fill="none" xmlns="http://www.w3.org/2000/svg">
<path d="M9.18367 7.87117V11.0204H14.3923C14.1819 12.3712 12.8189 14.9801 9.18367 14.9801C6.04975 14.9801 3.49056 12.3865 3.49056 9.18367C3.49056 5.98087 6.05051 3.38724 9.18367 3.38724C10.9668 3.38724 12.1615 4.14413 12.8457 4.8023L15.336 2.40077C13.7365 0.907653 11.6625 0 9.18367 0C4.10587 0 0 4.10587 0 9.18367C0 14.2615 4.10587 18.3673 9.18367 18.3673C14.4842 18.3673 18 14.6411 18 9.39337C18 8.79031 17.9349 8.32959 17.8554 7.87117H9.18367Z" fill="#2F0640"/>
</svg>
