<svg width="21" height="22" viewBox="0 0 21 22" fill="none" xmlns="http://www.w3.org/2000/svg">
<path d="M2.08002 2.25049C2.08002 1.14592 2.97545 0.250488 4.08002 0.250488H16.08C17.1846 0.250488 18.08 1.14592 18.08 2.25049H2.08002Z" fill="#717171"/>
<path d="M1.08002 5.25049C1.08002 4.14592 1.97545 3.25049 3.08002 3.25049H17.08C18.1846 3.25049 19.08 4.14592 19.08 5.25049H1.08002Z" fill="#717171"/>
<path d="M0.0800171 8.25049C0.0800171 7.14592 0.975448 6.25049 2.08002 6.25049H18.08C19.1846 6.25049 20.08 7.14592 20.08 8.25049V19.2505C20.08 20.3551 19.1846 21.2505 18.08 21.2505H2.08002C0.975448 21.2505 0.0800171 20.3551 0.0800171 19.2505V8.25049Z" fill="#717171"/>
</svg>
