<svg width="27" height="29" viewBox="0 0 27 29" fill="none" xmlns="http://www.w3.org/2000/svg">
<path d="M16.3092 14.1002C16.4402 13.5826 16.4346 13.0398 16.2929 12.525C16.1511 12.0101 15.8781 11.541 15.5005 11.1634C15.1229 10.7858 14.6537 10.5128 14.1389 10.371C13.6241 10.2292 13.0813 10.2236 12.5636 10.3547C11.4875 10.6202 10.607 11.5007 10.3415 12.5769C10.2104 13.0945 10.216 13.6373 10.3578 14.1521C10.4995 14.667 10.7726 15.1361 11.1501 15.5137C11.5277 15.8913 11.9969 16.1643 12.5117 16.3061C13.0265 16.4479 13.5693 16.4535 14.087 16.3224C15.1771 16.0569 16.0576 15.1764 16.3092 14.1002Z" fill="#2F0640"/>
<path d="M4.97542 23.3677C4.72385 23.3677 4.45831 23.2699 4.26265 23.0882C2.92051 21.8419 1.8494 20.3325 1.11603 18.6542C0.382671 16.9759 0.00277016 15.1645 0 13.333C0 5.98168 5.98168 0 13.333 0C20.6843 0 26.666 5.98168 26.666 13.333C26.666 17.0506 25.1706 20.4887 22.4593 23.0462C22.04 23.4376 21.3691 23.4236 20.9778 23.0043C20.5865 22.585 20.6005 21.9142 21.0197 21.5229C22.1446 20.4796 23.0409 19.2144 23.6519 17.8071C24.2629 16.3998 24.5754 14.8811 24.5696 13.347C24.5696 7.15565 19.5243 2.11036 13.333 2.11036C7.14168 2.11036 2.09638 7.15565 2.09638 13.347C2.09638 16.5055 3.36819 19.4125 5.68819 21.5648C6.10746 21.9561 6.13541 22.627 5.74409 23.0462C5.54053 23.2509 5.2641 23.3665 4.97542 23.3677Z" fill="#2F0640"/>
<path d="M18.9219 19.6347C18.718 19.6346 18.5187 19.5746 18.3485 19.4623C18.1783 19.35 18.0448 19.1902 17.9645 19.0028C17.8842 18.8154 17.8606 18.6086 17.8966 18.4079C17.9327 18.2073 18.0267 18.0215 18.1672 17.8738C19.3272 16.6439 19.9701 15.0227 19.9701 13.3456C19.9701 9.6839 16.9932 6.72102 13.3455 6.72102C11.5897 6.72471 9.90687 7.42384 8.66533 8.66539C7.42378 9.90694 6.72465 11.5898 6.72096 13.3456C6.72096 15.0367 7.36385 16.6439 8.52385 17.8738C8.91517 18.2931 8.90119 18.9639 8.48192 19.3552C8.06264 19.7605 7.3918 19.7326 7.00047 19.3133C5.47677 17.6996 4.6269 15.5649 4.62457 13.3456C4.62457 8.53788 8.53782 4.62463 13.3455 4.62463C18.1532 4.62463 22.0665 8.53788 22.0665 13.3456C22.0665 15.5678 21.2279 17.6921 19.6906 19.3133C19.487 19.518 19.2106 19.6336 18.9219 19.6347ZM10.9556 21.5369L8.94312 24.0385C7.34987 26.0371 8.77541 29 11.319 29H15.3301C17.8877 29 19.3132 26.0371 17.706 24.0525L15.6935 21.5508C15.412 21.1923 15.0529 20.9021 14.6432 20.7021C14.2335 20.5022 13.7838 20.3976 13.3279 20.3962C12.8721 20.3949 12.4218 20.4968 12.0109 20.6944C11.6001 20.8919 11.2393 21.1799 10.9556 21.5369Z" fill="#2F0640"/>
</svg>
