<svg width="29" height="29" viewBox="0 0 29 29" fill="none" xmlns="http://www.w3.org/2000/svg">
<path d="M25.375 9.3645H3.625C3.12958 9.3645 2.71875 8.95367 2.71875 8.45825C2.71875 7.96284 3.12958 7.552 3.625 7.552H25.375C25.8704 7.552 26.2812 7.96284 26.2812 8.45825C26.2812 8.95367 25.8704 9.3645 25.375 9.3645ZM18.375 15.4062H3.625C3.12958 15.4062 2.71875 14.9953 2.71875 14.4999C2.71875 14.0045 3.12958 13.5937 3.625 13.5937H18.375C18.8704 13.5937 19.2812 14.0045 19.2812 14.4999C19.2812 14.9953 18.8704 15.4062 18.375 15.4062ZM21.375 21.4478H3.625C3.12958 21.4478 2.71875 21.037 2.71875 20.5416C2.71875 20.0462 3.12958 19.6353 3.625 19.6353H21.375C21.8704 19.6353 22.2812 20.0462 22.2812 20.5416C22.2812 21.037 21.8704 21.4478 21.375 21.4478Z" fill="#2F0640"/>
</svg>
