<svg width="25" height="25" viewBox="0 0 25 25" fill="none" xmlns="http://www.w3.org/2000/svg">
<path d="M17.739 15.0938L16.6973 13.3647C16.4785 12.9793 16.2806 12.2501 16.2806 11.823V9.18758C16.2794 8.02512 15.949 6.88677 15.3278 5.90422C14.7066 4.92168 13.8198 4.1351 12.7702 3.6355C12.5023 3.15982 12.1116 2.76482 11.6388 2.49179C11.166 2.21876 10.6286 2.07772 10.0827 2.08342C8.9473 2.08342 7.92646 2.698 7.3848 3.66675C5.35355 4.67717 3.9473 6.77092 3.9473 9.18758V11.823C3.9473 12.2501 3.74938 12.9793 3.53063 13.3543L2.47855 15.0938C2.06188 15.7918 1.96813 16.5626 2.22855 17.2709C2.47855 17.9688 3.0723 18.5105 3.84313 18.7709C5.86396 19.4584 7.98896 19.7917 10.114 19.7917C12.239 19.7917 14.364 19.4584 16.3848 18.7813C17.114 18.5417 17.6765 17.9897 17.9473 17.2709C18.2181 16.5522 18.1452 15.7605 17.739 15.0938ZM13.041 20.8438C12.822 21.4502 12.4215 21.9745 11.8941 22.3454C11.3667 22.7162 10.7379 22.9157 10.0931 22.9167C9.27021 22.9167 8.45771 22.5834 7.8848 21.9897C7.55146 21.6772 7.30146 21.2605 7.15563 20.8334C7.29105 20.8542 7.42646 20.8647 7.5723 20.8855C7.81188 20.9167 8.06188 20.948 8.31188 20.9688C8.90563 21.0209 9.5098 21.0522 10.114 21.0522C10.7077 21.0522 11.3015 21.0209 11.8848 20.9688C12.1035 20.948 12.3223 20.9376 12.5306 20.9063L13.041 20.8438Z" fill="#2F0640"/>
<circle cx="15.8542" cy="3.35417" r="3.35417" fill="#F33030"/>
</svg>
